<svg width="1125" height="1125" viewBox="0 0 1125 1125" fill="none" xmlns="http://www.w3.org/2000/svg">
<rect width="1125" height="1125"/>
<path d="M365.829 699.268C422.358 699.268 467.659 653.968 467.659 597.826C467.659 541.297 422.358 495.61 365.829 495.61C309.3 495.61 264 541.297 264 597.826C264 653.968 309.3 699.268 365.829 699.268ZM365.829 651.258C336.016 651.258 312.398 627.639 312.398 597.439C312.398 567.626 336.016 543.62 365.829 543.62C396.03 543.62 419.261 567.626 419.261 597.439C419.261 627.639 396.03 651.258 365.829 651.258Z" fill="#7CFC89"/>
<path d="M575.429 494C542.117 494 516.116 507.58 497.523 532.056L530.496 563.088C539.793 548.324 556.061 536 575.429 536C594.796 536 613.389 545 613.389 565.061C613.389 570.137 609.473 574.358 604.409 574.723C590.305 575.738 581.903 576.226 571.168 577.074C518.5 580.061 482.852 597.665 482.852 641.566C482.852 673.812 499.895 702.561 547.927 702.561C581.455 702.561 601.341 685.63 612.822 665.728C612.976 665.461 613.389 665.571 613.389 665.88V696.922C613.389 697.032 613.479 697.122 613.589 697.122H661.608C661.719 697.122 661.808 697.032 661.808 696.922V579.016C661.808 540.943 646.701 494 575.429 494ZM553.495 664.73C535.677 664.73 525.219 650.89 525.219 638.069C525.219 625.637 539.517 610.223 571.168 607.561C588.296 606.12 605.578 606.063 612.578 602.074C612.93 601.873 613.388 602.128 613.383 602.533C612.907 640.962 584.225 664.73 553.495 664.73Z" fill="#7CFC89"/>
<path d="M673.811 697.117C673.811 697.227 673.9 697.317 674.011 697.317H722.029C722.14 697.317 722.229 697.228 722.229 697.117V629.641L744.308 608.249L807.447 697.317H864L777.233 576.355L853.541 502.845H793.889L722.229 572.855V406H673.811V697.117Z" fill="#7CFC89"/>
</svg>
